<svg xmlns="http://www.w3.org/2000/svg" width="149" height="124" viewBox="0 0 149 124"><defs><clipPath id="z4g4a"><path fill="#fff" d="M144.004 50.318c.375 24.85-19.473 45.299-44.331 45.673-24.858.374-45.312-19.468-45.686-44.318-.374-24.85 19.474-45.298 44.331-45.672 24.858-.374 45.313 19.467 45.686 44.317z"/></clipPath><clipPath id="z4g4b"><path fill="#fff" d="M22.113 112.627c.092 6.075-4.759 11.073-10.833 11.165-6.075.091-11.073-4.759-11.164-10.833-.092-6.075 4.758-11.073 10.833-11.165 6.074-.091 11.073 4.76 11.164 10.833z"/></clipPath></defs><g><g><path fill="#d3483e" d="M148.974 49.735c.42 27.905-21.847 50.866-49.735 51.286-27.887.42-50.834-21.86-51.254-49.765C47.565 23.35 69.832.389 97.72-.03c27.887-.42 50.834 21.86 51.254 49.765z"/></g><g><path fill="none" stroke="#fff" stroke-miterlimit="50" stroke-width="2" d="M144.004 50.318c.375 24.85-19.473 45.299-44.331 45.673-24.858.374-45.312-19.468-45.686-44.318-.374-24.85 19.474-45.298 44.331-45.672 24.858-.374 45.313 19.467 45.686 44.317z" clip-path="url(&quot;#z4g4a&quot;)"/></g><g><path fill="none" stroke="#8dcfec" stroke-miterlimit="50" stroke-width="2" d="M22.113 112.627c.092 6.075-4.759 11.073-10.833 11.165-6.075.091-11.073-4.759-11.164-10.833-.092-6.075 4.758-11.073 10.833-11.165 6.074-.091 11.073 4.76 11.164 10.833z" clip-path="url(&quot;#z4g4b&quot;)"/></g></g></svg>