<svg xmlns="http://www.w3.org/2000/svg" width="254" height="181" viewBox="0 0 254 181"><defs><clipPath id="ys7na"><path fill="#fff" d="M50.286 20.173c2.657 13.55-6.172 26.687-19.72 29.345-13.55 2.657-26.688-6.172-29.345-19.72C-1.437 16.247 7.393 3.11 20.94.452c13.55-2.658 26.688 6.171 29.345 19.72z"/></clipPath><clipPath id="ys7nb"><path fill="#fff" d="M214.406 171.09c-37.328 20.937-84.557 7.646-105.491-29.685-20.934-37.33-7.645-84.566 29.682-105.502 37.327-20.935 84.557-7.645 105.49 29.686 20.935 37.33 7.646 84.566-29.681 105.502z"/></clipPath><clipPath id="ys7nc"><path fill="#fff" d="M207.728 159.159c-30.751 17.245-69.66 6.298-86.907-24.452-17.246-30.748-6.298-69.654 24.453-86.9 30.752-17.244 69.661-6.297 86.907 24.452 17.246 30.749 6.298 69.655-24.453 86.9z"/></clipPath></defs><g><g><path fill="#fff" d="M50.286 20.173c2.657 13.55-6.172 26.687-19.72 29.345-13.55 2.657-26.688-6.172-29.345-19.72C-1.437 16.247 7.393 3.11 20.94.452c13.55-2.658 26.688 6.171 29.345 19.72z"/><path fill="none" stroke="#8dcfec" stroke-miterlimit="50" stroke-width="2" d="M50.286 20.173c2.657 13.55-6.172 26.687-19.72 29.345-13.55 2.657-26.688-6.172-29.345-19.72C-1.437 16.247 7.393 3.11 20.94.452c13.55-2.658 26.688 6.171 29.345 19.72z" clip-path="url(&quot;#ys7na&quot;)"/></g><g><path fill="none" stroke="#d3483e" stroke-miterlimit="50" stroke-width="40" d="M214.406 171.09c-37.328 20.937-84.557 7.646-105.491-29.685-20.934-37.33-7.645-84.566 29.682-105.502 37.327-20.935 84.557-7.645 105.49 29.686 20.935 37.33 7.646 84.566-29.681 105.502z" clip-path="url(&quot;#ys7nb&quot;)"/></g><g><path fill="none" stroke="#8dcfec" stroke-miterlimit="50" stroke-width="6" d="M207.728 159.159c-30.751 17.245-69.66 6.298-86.907-24.452-17.246-30.748-6.298-69.654 24.453-86.9 30.752-17.244 69.661-6.297 86.907 24.452 17.246 30.749 6.298 69.655-24.453 86.9z" clip-path="url(&quot;#ys7nc&quot;)"/></g></g></svg>